<svg xmlns="http://www.w3.org/2000/svg" width="24" height="24" id="dots"><path d="M2.2 7.6c-.2 0-.4-.1-.6-.2-.4-.2-.6-.5-.7-.8 0-.3 0-.6.2-.9.3-.6 1.1-.8 1.7-.4.3.1.5.4.6.7s0 .7-.1 1c-.3.3-.7.6-1.1.6zm0-1.5c-.1 0-.2 0-.3.1v.2l.1.1c.1.1.3 0 .3-.1.1-.1 0-.2 0-.2s0-.1-.1-.1zM6.8 10.2c-.2 0-.4-.1-.6-.2-.7-.3-.9-1.1-.5-1.7.3-.5 1.1-.8 1.7-.4.6.3.8 1.1.4 1.7-.2.4-.6.6-1 .6zm0-1.5s-.2 0-.2.1c-.1.2-.1.3 0 .4 0 0 .2.1.3-.1.1-.1.1-.3 0-.4h-.1zM17.3 16.3c-.2 0-.4-.1-.6-.2-.6-.4-.8-1.1-.5-1.7.4-.6 1.1-.8 1.7-.5.6.4.8 1.1.5 1.7-.3.4-.7.7-1.1.7zm0-1.5c-.1 0-.2.1-.2.1-.1.1 0 .3.1.3s.3 0 .3-.1c.1-.1 0-.3-.1-.4l-.1.1zM21.8 18.9c-.2 0-.4-.1-.6-.2-.6-.4-.8-1.1-.5-1.7.3-.6 1.1-.8 1.7-.5.6.3.8 1.1.5 1.7-.2.5-.6.7-1.1.7zm0-1.5s-.2 0-.2.1c-.1.1 0 .3.1.4.1.1.3 0 .3-.1.1-.1 0-.3-.1-.3 0-.1 0-.1-.1-.1zM2.2 18.9c-.5 0-.9-.2-1.1-.6-.2-.3-.2-.6-.1-.9.1-.3.3-.6.6-.8.7-.4 1.4-.1 1.7.5.2.3.2.6.1.9-.1.3-.3.6-.6.8-.2.1-.4.1-.6.1zm0-1.5h-.1s-.1.1-.1.2v.2c0 .1.2.2.3.1.1 0 .1-.1.1-.2v-.2c-.1-.1-.2-.1-.2-.1zM6.8 16.3c-.5 0-.9-.2-1.1-.6-.3-.6-.1-1.4.4-1.7.7-.4 1.4-.1 1.7.5.4.5.2 1.3-.4 1.6-.2.1-.4.2-.6.2zm-.1-1.5h-.1c-.1.1-.2.2-.1.3.1.3.3.2.4.1.1 0 .1-.2.1-.3-.1-.1-.2-.1-.3-.1zM17.3 10.2c-.5 0-.9-.2-1.1-.6-.4-.6-.2-1.4.4-1.7.6-.3 1.4-.1 1.7.5.3.6.1 1.4-.5 1.7-.1.1-.3.1-.5.1zm0-1.5h-.1c-.2.1-.2.3-.2.4.1.2.3.1.4.1.1-.1.2-.2.1-.4-.1 0-.2-.1-.2-.1zM21.8 7.6c-.4 0-.9-.2-1.1-.6-.3-.6-.1-1.4.5-1.7.5-.3 1.4-.1 1.7.4.3.6.1 1.4-.5 1.7-.1.1-.3.2-.6.2zm0-1.5h-.1c-.1.1-.2.2-.1.4.1.1.2.2.3.1.2-.1.2-.3.1-.4 0-.1-.1-.1-.2-.1zM6.3 23.1c-.2 0-.4-.1-.6-.2-.3-.2-.5-.5-.6-.8-.1-.3 0-.7.1-.9.3-.6 1.1-.8 1.7-.5.6.4.8 1.1.5 1.7-.2.5-.6.7-1.1.7zm0-1.5s-.1 0-.2.1-.1.2 0 .2c0 .1.1.1.1.2.1 0 .3 0 .3-.1.1-.1 0-.3-.1-.4h-.1zM9 18.5c-.2 0-.4-.1-.6-.2-.6-.4-.8-1.1-.5-1.7.3-.6 1.1-.8 1.7-.5.6.4.8 1.1.5 1.7-.3.5-.7.7-1.1.7zM9 17s-.2 0-.2.1c-.1.1 0 .3.1.4.1 0 .3 0 .4-.1.1-.1 0-.3-.1-.4H9zM15 8c-.2 0-.5-.1-.6-.2-.3-.2-.5-.4-.6-.8-.1-.3 0-.7.1-1 .3-.6 1.1-.8 1.7-.4.6.3.8 1.1.5 1.7-.2.5-.6.7-1.1.7zm0-1.5c-.1 0-.2 0-.2.1-.1.1 0 .2 0 .2 0 .1.1.1.1.2.1.1.3 0 .3-.1.1-.1 0-.3-.1-.4H15zM17.7 3.4c-.2 0-.4-.1-.6-.2-.3-.2-.5-.4-.6-.8-.1-.3 0-.7.1-1 .3-.6 1.1-.8 1.7-.4.3.2.5.4.6.7.1.3 0 .7-.1 1-.3.5-.7.7-1.1.7zm0-1.5c-.1 0-.2 0-.2.1-.1.1 0 .2 0 .2s0 .1.1.2.3 0 .4-.1v-.2s0-.1-.1-.1c-.1-.1-.2-.1-.2-.1zM17.7 23.1c-.5 0-.9-.2-1.1-.6-.2-.3-.2-.6-.1-.9.1-.3.3-.6.6-.8.6-.3 1.4-.1 1.7.5.2.3.2.6.1.9-.1.3-.3.6-.6.8-.2 0-.4.1-.6.1zm0-1.5h-.1c-.1 0-.1.1-.1.2v.2c.1.1.2.2.4.1.1 0 .1-.1.1-.2v-.2c-.2-.1-.3-.1-.3-.1zM15 18.5c-.5 0-.9-.2-1.1-.6-.2-.3-.2-.6-.1-.9.1-.3.3-.6.6-.8.6-.4 1.4-.1 1.7.5.3.6.1 1.3-.5 1.7-.1.1-.3.1-.6.1zm0-1.5h-.1c-.1 0-.1.1-.1.2v.2c.1.1.2.2.4.1.1-.1.1-.2.1-.3-.1-.2-.2-.2-.3-.2zM9 8c-.5 0-.9-.2-1.1-.6-.2-.3-.2-.6-.1-1 .1-.3.3-.6.6-.8.5-.3 1.4-.1 1.7.4.2.3.2.6.1 1-.1.3-.3.6-.6.8-.2.1-.4.2-.6.2zm0-1.5h-.1c-.1 0-.1.1-.1.2v.2c0 .1.2.1.3.1.1 0 .1-.1.1-.2v-.2c-.1-.1-.1-.1-.2-.1zM6.3 3.4c-.5 0-.9-.2-1.1-.6-.1-.3-.2-.6-.1-1 .1-.3.3-.6.6-.8.6-.3 1.4-.1 1.7.5.2.3.2.6.1.9 0 .4-.3.7-.5.8-.2.2-.5.2-.7.2zm0-1.5h-.1c-.1.1-.1.1-.1.2v.2c.1.1.2.2.4.1.1 0 .1-.1.1-.2V2c-.1-.1-.2-.1-.3-.1z"></path></svg>