<svg xmlns="http://www.w3.org/2000/svg" viewBox="0 0 24 24" id="Dots"><path d="M19.7 23.5H4.3c-2.1 0-3.8-1.7-3.8-3.8V4.3C.5 2.2 2.2.5 4.3.5h15.3c2.1 0 3.8 1.7 3.8 3.8v15.3c.1 2.2-1.6 3.9-3.7 3.9zM4.3 1.5c-1.6 0-2.8 1.3-2.8 2.8v15.3c0 1.6 1.3 2.8 2.8 2.8h15.3c1.6 0 2.8-1.3 2.8-2.8V4.3c0-1.6-1.3-2.8-2.8-2.8H4.3z" fill="#ffb703" class="color000000 svgShape"></path><path d="M12 9.3c-1.2 0-2.1-.9-2.1-2.1S10.8 5 12 5s2.1.9 2.1 2.1-.9 2.2-2.1 2.2zM12 6c-.6 0-1.1.5-1.1 1.1s.5 1.1 1.1 1.1 1.1-.5 1.1-1.1S12.6 6 12 6zM17.1 9.3c-1.2 0-2.1-.9-2.1-2.1S15.9 5 17.1 5s2.1.9 2.1 2.1-1 2.2-2.1 2.2zm0-3.3c-.6 0-1.1.5-1.1 1.2s.5 1.1 1.1 1.1 1.1-.5 1.1-1.1S17.7 6 17.1 6zM6.9 14.1c-1.2 0-2.1-.9-2.1-2.1s.9-2.1 2.1-2.1S9 10.8 9 12s-.9 2.1-2.1 2.1zm0-3.2c-.6 0-1.1.5-1.1 1.1s.5 1.1 1.1 1.1S8 12.6 8 12s-.5-1.1-1.1-1.1zM12 14.1c-1.2 0-2.1-.9-2.1-2.1s.9-2.1 2.1-2.1 2.1.9 2.1 2.1-.9 2.1-2.1 2.1zm0-3.2c-.6 0-1.1.5-1.1 1.1s.5 1.1 1.1 1.1 1.1-.5 1.1-1.1-.5-1.1-1.1-1.1zM17.1 14.1c-1.2 0-2.1-.9-2.1-2.1s.9-2.1 2.1-2.1 2.1.9 2.1 2.1-1 2.1-2.1 2.1zm0-3.2c-.6 0-1.1.5-1.1 1.1s.5 1.1 1.1 1.1 1.1-.5 1.1-1.1-.5-1.1-1.1-1.1zM12 19c-1.2 0-2.1-.9-2.1-2.1 0-1.2.9-2.1 2.1-2.1s2.1.9 2.1 2.1c0 1.1-.9 2.1-2.1 2.1zm0-3.3c-.6 0-1.1.5-1.1 1.1 0 .6.5 1.1 1.1 1.1s1.1-.5 1.1-1.1c0-.6-.5-1.1-1.1-1.1zM17.1 19c-1.2 0-2.1-1-2.1-2.2 0-1.2.9-2.1 2.1-2.1s2.1.9 2.1 2.1c0 1.2-1 2.2-2.1 2.2zm0-3.3c-.6 0-1.1.5-1.1 1.1 0 .6.5 1.1 1.1 1.1s1.1-.5 1.1-1.1c0-.6-.5-1.1-1.1-1.1z" fill="#ffb703" class="color000000 svgShape"></path></svg>