<svg xmlns="http://www.w3.org/2000/svg" viewBox="0 0 24 24" id="DotsRandom"><path d="M5,3A2,2,0,1,1,3,1,2,2,0,0,1,5,3ZM3,10A1,1,0,1,0,2,9,1,1,0,0,0,3,10Zm0,6a1,1,0,1,0-1-1A1,1,0,0,0,3,16Zm0,3a2,2,0,1,0,2,2A2,2,0,0,0,3,19ZM9,1a2,2,0,1,0,2,2A2,2,0,0,0,9,1Zm1,8a1,1,0,1,0-1,1A1,1,0,0,0,10,9ZM9,13a2,2,0,1,0,2,2A2,2,0,0,0,9,13Zm0,7a1,1,0,1,0,1,1A1,1,0,0,0,9,20ZM15,4a1,1,0,1,0-1-1A1,1,0,0,0,15,4Zm0,3a2,2,0,1,0,2,2A2,2,0,0,0,15,7Zm1,8a1,1,0,1,0-1,1A1,1,0,0,0,16,15Zm-1,4a2,2,0,1,0,2,2A2,2,0,0,0,15,19ZM21,5a2,2,0,1,0-2-2A2,2,0,0,0,21,5ZM20,9a1,1,0,1,0,1-1A1,1,0,0,0,20,9Zm1,4a2,2,0,1,0,2,2A2,2,0,0,0,21,13Zm0,7a1,1,0,1,0,1,1A1,1,0,0,0,21,20Z" fill="#ffb703" class="color000000 svgShape"></path></svg>